<svg xmlns="http://www.w3.org/2000/svg" xmlns:xlink="http://www.w3.org/1999/xlink" version="1.1" x="0px" y="0px" viewBox="0 0 1000 1000" enable-background="new 0 0 1000 1000" xml:space="preserve" fill="rgba(255,255,255,0.8)"><path d="M735.956,614.914l184.061-98.166l-183.775-97.423l60.735-199.565L598.14,280.82L499.973,96.759L402.55,280.535  l-199.564-60.737l61.06,198.837L79.985,516.802l183.775,97.424L203.024,813.79l198.837-61.06l98.167,184.061l97.423-183.775  l199.564,60.735L735.956,614.914z M663.492,666.123l-18.837-61.342l74.132,22.357l41.783,136.063L663.492,666.123z M528.67,660.069  L499.974,714.2l-28.643-53.705l28.696-53.805L528.67,660.069z M336.5,666.134l-97.221,97.221l41.247-135.529l74.537-22.685  L336.5,666.134z M336.509,367.427l18.837,61.342l-74.133-22.358L239.43,270.348L336.509,367.427z M378.404,435.722l-17.985-58.566  l58.229,17.722l17.754,58.336L378.404,435.722z M500.027,319.35l28.643,53.704l-28.697,53.805l-28.642-53.378L500.027,319.35z   M663.5,367.417l97.223-97.223l-41.248,135.531l-74.537,22.684L663.5,367.417z M457.414,516.093  c0-23.481,19.104-42.585,42.585-42.585c23.482,0,42.587,19.104,42.587,42.585c0,23.482-19.104,42.587-42.587,42.587  C476.518,558.68,457.414,539.575,457.414,516.093z M410.084,516.802l-53.378,28.643l-54.131-28.695l53.705-28.643L410.084,516.802z   M589.917,516.748l53.378-28.642l54.131,28.695l-53.704,28.644L589.917,516.748z M637.585,581.759l-88.637-26.732  c6.866-8.614,11.506-19.069,13.054-30.5l48.172,25.692l33.547,17.892l0,0l66.879,35.669L637.585,581.759L637.585,581.759z   M664.971,556.777l56.255-30.003h137.491l-125,66.668L664.971,556.777z M721.212,506.774l-56.695-30.056l68.229-36.61  l125.759,66.666H721.212z M562.165,508.94c-1.309-11.44-5.708-21.952-12.349-30.676l88.109-26.814v-0.001l72.513-22.068  L562.165,508.94z M621.898,435.421l-58.337,17.754l17.491-57.997l58.567-17.985L621.898,435.421z M538.549,466.844  c-8.615-6.759-19.036-11.305-30.413-12.79l78.869-147.878L538.549,466.844z M491.868,454.054  c-11.376,1.483-21.797,6.029-30.414,12.787l-26.778-87.991l-0.001,0l-22.068-72.51l36.058,67.198l0,0L491.868,454.054z   M450.186,478.261c-6.642,8.724-11.042,19.234-12.351,30.675l-81.555-43.498l0,0l-66.876-35.668L450.186,478.261z M335.03,476.772  l-56.256,30.003h-137.49l125-66.667L335.03,476.772z M278.789,526.775l56.696,30.056l-68.229,36.611l-125.758-66.667H278.789z   M437.997,524.522c1.547,11.43,6.186,21.885,13.051,30.5l-57.808,17.594l-31.165,9.484v0.001l-72.515,22.069L437.997,524.522z   M378.102,598.129l58.337-17.754l-17.491,57.996l-58.567,17.986L378.102,598.129z M435.017,654.359l26.767-88.753  c8.724,6.749,19.267,11.243,30.762,12.614l-43.881,82.274l0,0.001l-35.668,66.876L435.017,654.359L435.017,654.359z   M507.448,578.221c11.495-1.37,22.039-5.863,30.764-12.612l17.63,57.927l9.484,31.165l0,0l22.07,72.515L507.448,578.221z   M563.601,580.336l57.996,17.491l17.986,58.567l-58.229-17.722L563.601,580.336z M746.428,256.204l-97.079,97.08l-61.342,18.837  l22.357-74.133L746.428,256.204z M540.003,351.805L510,295.551V158.059l66.668,125L540.003,351.805z M490,158.273v137.29  l-30.056,56.696l-36.61-68.229L490,158.273z M411.635,371.837l-60.993-18.563l-97.221-97.221l135.529,41.247L411.635,371.837z   M253.574,777.346l97.079-97.079l61.342-18.837l-22.357,74.132L253.574,777.346z M459.998,681.745L490.001,738v137.492  l-66.667-125.001L459.998,681.745z M510.001,875.277V737.986l30.056-56.696l36.611,68.229L510.001,875.277z M588.366,661.712  l60.992,18.563l97.222,97.222l-135.529-41.247L588.366,661.712z"/><text x="0" y="1015" fill="#FFFFFF" font-size="5px" font-weight="bold" font-family="'Helvetica Neue', Helvetica, Arial-Unicode, Arial, Sans-serif">Created by Creative Mania</text><text x="0" y="1020" fill="#FFFFFF" font-size="5px" font-weight="bold" font-family="'Helvetica Neue', Helvetica, Arial-Unicode, Arial, Sans-serif">from the Noun Project</text></svg>